<?xml version="1.0" encoding="iso-8859-1"?>
<!-- Generator: Adobe Illustrator 19.0.0, SVG Export Plug-In . SVG Version: 6.00 Build 0)  -->
<svg version="1.1" id="Capa_1" xmlns="http://www.w3.org/2000/svg" xmlns:xlink="http://www.w3.org/1999/xlink" x="0px" y="0px"
	 viewBox="0 0 512 512" style="enable-background:new 0 0 512 512;" xml:space="preserve">
<g>
	<g>
		<path d="M256,15.5c-8.291,0-15,6.709-15,15v30c0,8.291,6.709,15,15,15c8.291,0,15-6.709,15-15v-30
			C271,22.21,264.291,15.5,256,15.5z"/>
	</g>
</g>
<g>
	<g>
		<path d="M337.211,54.29c-5.859-5.859-15.351-5.86-21.211,0L294.789,75.5c-5.859,5.859-5.859,15.352,0,21.211
			s15.352,5.859,21.211,0L337.211,75.5C343.07,69.641,343.07,60.149,337.211,54.29z"/>
	</g>
</g>
<g>
	<g>
		<path d="M217.211,75.5L196,54.29c-5.859-5.86-15.351-5.86-21.211,0c-5.859,5.859-5.859,15.352,0,21.211L196,96.711
			c5.859,5.859,15.352,5.859,21.211,0S223.07,81.36,217.211,75.5z"/>
	</g>
</g>
<g>
	<g>
		<path d="M450.508,213.657c-4.316-24.476-27.654-40.818-52.13-36.504c-7.321,1.291-14.781,4.435-20.31,8.652
			c-12.911-18.75-35.878-29.383-59.76-25.172s-41.827,22.059-47.547,44.092c-6.638-2.071-13.782-2.814-21.105-1.523
			c-24.474,4.316-40.818,27.654-36.502,52.13c4.316,24.476,27.656,40.817,52.132,36.502c13.608-2.401,24.527-10.787,30.954-21.872
			c12.275,7.939,27.374,11.587,42.905,8.848c15.531-2.737,28.473-11.331,37.293-22.989c9.831,8.22,23.96,12.365,37.568,9.966
			C438.482,261.471,454.824,238.131,450.508,213.657z"/>
	</g>
</g>
<g>
	<g>
		<path d="M193.693,160.633c-23.882-4.211-47.849,6.422-60.76,25.172c-5.53-4.217-11.99-7.361-19.31-8.652
			c-24.476-4.314-47.814,12.028-52.13,36.504c-4.316,24.474,12.026,47.814,36.502,52.13c13.608,2.399,26.737-1.747,36.568-9.966
			c8.82,11.658,22.762,20.251,38.293,22.989c5.742,1.013,11.364,0.892,16.868,0.264c-2.708-5.828-4.951-11.938-6.116-18.53
			c-3.486-19.731,0.938-39.639,12.422-56.045c7.903-11.277,18.618-19.74,30.873-25.211
			C218.345,169.969,207.131,163.003,193.693,160.633z"/>
	</g>
</g>
<g>
	<g>
		<path d="M223.838,315.893c-5.674-2.569-11.006-5.825-15.87-9.721c-13.077,3.81-26.856,4.567-40.327,2.183
			c-13.55-2.388-27.191-7.837-38.148-15.85c-11.649,3.972-24.104,5.021-36.68,2.829l-29.572-5.213
			c-24.475-4.315-47.814,12.027-52.13,36.503l-10.42,59.088c-4.314,24.476,12.028,47.814,36.504,52.13l14.771,2.606
			c-2.877,16.317,8.018,31.877,24.335,34.753l119.176,20.837c16.318,2.877,31.877-8.018,34.755-24.335l10.536-59.755
			L223.838,315.893z M57.175,410.905l-14.771-2.606c-8.159-1.437-13.607-9.219-12.167-17.377l10.418-59.088
			c1.437-8.159,9.218-13.607,17.377-12.167l14.771,2.604L57.175,410.905z"/>
	</g>
</g>
<g>
	<g>
		<path d="M511.31,385.713l-10.421-59.088c-4.316-24.476-27.654-40.818-52.13-36.502c0,0-24.467,4.312-29.517,5.204l-0.055,0.009
			c-12.568,2.19-26.023,1.144-37.68-2.829c-10.957,8.013-23.599,13.462-37.148,15.85c-13.467,2.382-27.244,1.63-40.327-2.183
			c-9.653,7.734-21.123,13.008-33.53,15.205c-4.395,0.776-8.774,1.143-13.096,1.143c-0.672,0-1.306-0.157-1.974-0.176
			l26.336,149.359c2.878,16.317,18.437,27.211,34.755,24.335L435.7,475.201c16.317-2.877,27.212-18.437,24.335-34.753l14.771-2.606
			C499.282,433.526,515.624,410.189,511.31,385.713z M469.598,408.297l-14.771,2.606l-15.629-88.634l14.771-2.604
			c8.159-1.439,15.939,4.008,17.377,12.167l10.419,59.088C483.204,399.078,477.757,406.859,469.598,408.297z"/>
	</g>
</g>
<g>
</g>
<g>
</g>
<g>
</g>
<g>
</g>
<g>
</g>
<g>
</g>
<g>
</g>
<g>
</g>
<g>
</g>
<g>
</g>
<g>
</g>
<g>
</g>
<g>
</g>
<g>
</g>
<g>
</g>
</svg>
