<?xml version="1.0"?>
<svg xmlns="http://www.w3.org/2000/svg" xmlns:xlink="http://www.w3.org/1999/xlink" xmlns:svgjs="http://svgjs.com/svgjs" version="1.1" width="512" height="512" x="0" y="0" viewBox="0 0 512.533 512.533" style="enable-background:new 0 0 512 512" xml:space="preserve" class=""><g>
<path xmlns="http://www.w3.org/2000/svg" style="" d="M406.6,62.4c-83.2-83.2-217.6-83.2-299.733,0c-83.2,83.2-83.2,216.533,0,299.733l149.333,150.4  L405.533,363.2C488.733,280,488.733,145.6,406.6,62.4z" fill="#000000" data-original="#f3705b" class=""/>
<path xmlns="http://www.w3.org/2000/svg" style="" d="M256.2,354.667c-77.867,0-141.867-64-141.867-141.867S177.266,70.933,256.2,70.933  c77.867,0,141.867,62.933,141.867,141.867C398.066,290.667,334.066,354.667,256.2,354.667z" fill="#323232" data-original="#f3f3f3" class=""/>
<path xmlns="http://www.w3.org/2000/svg" style="" d="M181.533,156.267L200.733,312c1.067,7.467,7.467,12.8,14.933,12.8H297.8  c7.467,0,13.867-5.333,14.933-12.8l18.133-155.733H181.533z" fill="#c9c9c9" data-original="#ffd15d" class=""/>
<path xmlns="http://www.w3.org/2000/svg" style="" d="M315.933,122.133c-4.267,0-8.533,1.067-11.733,2.133c-5.333-7.467-12.8-11.733-22.4-11.733  c-3.2,0-6.4,1.067-9.6,2.133c-6.4-11.733-19.2-19.2-33.067-19.2c-11.733,0-22.4,5.333-28.8,13.867  c-1.067-1.067-3.2-1.067-5.333-1.067c-7.467,0-12.8,5.333-13.867,11.733c-11.733,4.267-19.2,14.933-19.2,27.733  c0,3.2,0,5.333,1.067,7.467c-3.2,4.267-6.4,9.6-6.4,16c0,12.8,10.667,23.467,23.467,23.467c9.6,0,17.067-5.333,21.333-13.867  c2.133,1.067,5.333,2.133,8.533,2.133c3.2,0,7.467-1.067,9.6-3.2v80c0,4.267,3.2,6.4,6.4,6.4h5.333c3.2,0,6.4-3.2,6.4-6.4v-90.667  c3.2-1.067,5.333-2.133,8.533-3.2v38.4c0,3.2,3.2,6.4,6.4,6.4h5.333c3.2,0,6.4-3.2,6.4-6.4V164.8c2.133,1.067,4.267,1.067,6.4,1.067  v67.2c0,5.333,4.267,8.533,8.533,8.533c5.333,0,9.6-4.267,9.6-8.533v-57.6c4.267,3.2,9.6,4.267,16,4.267  c16,0,29.867-12.8,29.867-29.867C345.8,134.933,331.933,122.133,315.933,122.133z" fill="#ffffff" data-original="#ffffff" class=""/>
<g xmlns="http://www.w3.org/2000/svg">
</g>
<g xmlns="http://www.w3.org/2000/svg">
</g>
<g xmlns="http://www.w3.org/2000/svg">
</g>
<g xmlns="http://www.w3.org/2000/svg">
</g>
<g xmlns="http://www.w3.org/2000/svg">
</g>
<g xmlns="http://www.w3.org/2000/svg">
</g>
<g xmlns="http://www.w3.org/2000/svg">
</g>
<g xmlns="http://www.w3.org/2000/svg">
</g>
<g xmlns="http://www.w3.org/2000/svg">
</g>
<g xmlns="http://www.w3.org/2000/svg">
</g>
<g xmlns="http://www.w3.org/2000/svg">
</g>
<g xmlns="http://www.w3.org/2000/svg">
</g>
<g xmlns="http://www.w3.org/2000/svg">
</g>
<g xmlns="http://www.w3.org/2000/svg">
</g>
<g xmlns="http://www.w3.org/2000/svg">
</g>
</g></svg>
